<?xml version="1.0" encoding="utf-8"?>
<!-- Generator: Adobe Illustrator 24.0.2, SVG Export Plug-In . SVG Version: 6.00 Build 0)  -->
<svg version="1.1" id="Layer_1" xmlns="http://www.w3.org/2000/svg" xmlns:xlink="http://www.w3.org/1999/xlink" x="0px" y="0px"
	 viewBox="0 0 1200 1200" style="enable-background:new 0 0 1200 1200;" xml:space="preserve">
<style type="text/css">
	.st0{fill:#0D3C1C;}
</style>
<g>
	<path class="st0" d="M1052.1,484.8H898.4c-51.1-188-219.6-318.3-413.7-318.3C248.1,166.5,55.6,361,55.6,600
		s192.5,433.5,429.1,433.5c209.4,0,389.2-154.8,423.2-362.2h144.3c50.9,0,92.3-41.8,92.3-93.2C1144.4,526.6,1103,484.8,1052.1,484.8
		z M1052.1,643H883.6l-1.7,12.2c-26.9,199.5-197.7,350-397.3,350c-221.2,0-401.1-181.8-401.1-405.2c0-223.4,179.9-405.2,401.1-405.2
		c185.1,0,345.2,126.6,389.4,308l2.9,11.9l12.1-1.3c2.2-0.2,4.4-0.3,6.5-0.3h156.5c35.5,0,64.3,29.1,64.3,65
		C1116.5,613.9,1087.6,643,1052.1,643z"/>
	<path class="st0" d="M490.5,256.4c-187.9,0-340.2,153.8-340.2,343.6s152.3,343.6,340.2,343.6c187.9,0,340.2-153.8,340.2-343.6
		S678.3,256.4,490.5,256.4z M460.2,324.1c10.3,2.9,17.9,16,26.6,24.6c0,0,0.1,0,0.1,0c0,0,0.1,0,0.1,0c8.7-8.5,16.2-21.6,26.6-24.6
		c11.4-3.2,26,25.7,18.5,41.5c-11.2,23.8-25.8,46.2-41.5,72.7c-1,2.3-2,4.7-3,7.2c-0.2-0.4-0.4-0.7-0.6-1c-0.2,0.4-0.4,0.7-0.6,1
		c-1-2.5-2-4.8-3-7.2c-15.7-26.5-30.3-48.9-41.5-72.7C434.3,349.8,448.8,320.8,460.2,324.1z M444.2,407.3
		c16,25.2,31.4,49.3,45.8,71.9c13.6-23.9,28.6-50,45.8-80.2c26.9,64.5-38.1,91.3-45.9,138.7C446.1,494.7,425.3,437.5,444.2,407.3z
		 M416.7,468c25.3,43.2,50.1,85.6,71.4,122.1c20.3-40.6,43.5-87.2,66.9-134.1c21.3,32.1,18.1,93.6-7.1,119.5
		c-18.7,19.3-39.1,37-57.5,54.2c-21.4-18.9-43.9-38-65.6-58.1C397.1,545.9,393.6,502.3,416.7,468z M437,618.6
		c24.4,17.6,36.8,42.7,41.4,72.3c-15.6-34-39.8-57.9-78.4-66.6c22.1,23.7,44.1,47.4,66.2,71.1c-67.5-30.9-114.8-76.9-114.6-157.6
		C367,579.6,405.1,595.7,437,618.6z M304.6,596.7c8.3,12.5,14.5,21.6,20.3,30.9c21.8,34.7,53.7,53,92.8,62.3
		c40.8,9.7,63.1,36.1,66.8,79.6c-13-33.2-37.3-42.2-63.1-49.8c-24.2-7.1-48-15.4-73.6-23.8c14.4,27.5,38.6,39.4,65.3,48.6
		c15.9,5.5,33.4,10.1,46.3,20.2c12.8,10.1,20.7,26.6,27.4,43.5c-22-33.6-56.4-41-90.7-50C319.9,738.1,280.3,670,304.6,596.7z
		 M479.3,891.8c-22.5-14.4-43.5-31.7-67.4-43.2C383.7,835,352.3,828.3,324,815c-55.2-25.9-87.6-93.1-72-152.3
		c0.6-2.1,2.9-10.6,6.8-15.2C272.3,720.8,322.8,750,386.4,765c33.7,7.9,64.4,23,86.2,51.7c6.4,8.4,10.4,18.7,10.7,32
		c-5.2-5.6-9.5-12.5-15.7-16.4c-22-13.8-42-35.1-67.4-39c-31.8-4.9-71.3-20.9-99.4-41.9c10.9,18.8,11.6,22.3,34.6,44.7
		c18.7,18.2,40.1,16.3,65.3,23.9c36.8,11.1,71.3,24.4,86.3,64.9c1.1,2.9,5,4.8,5.2,12.3C487.9,895.4,483.1,894.3,479.3,891.8z
		 M529.3,613.3c29.4-28.9,66.2-51.6,75.5-97.4c12.9,83.4-28.6,138.6-93.5,181.4c19-28,38.1-56.1,57.1-84.1
		c-38.5,15.2-59.7,43.7-70.5,81.4C498,663.3,506.8,635.4,529.3,613.3z M564.1,701.8c-37.2,10.7-34.3,15.5-55.8,46
		c-0.5-0.3-1.1-0.5-1.6-0.7c7-14.2,13.9-28.5,23.9-40c14.9-17.1,36.1-28.3,53.2-43.6c26.8-23.9,52.4-49.1,77.3-72.6
		c13.7,27.7,4.8,82.3-28,111.7c-24.3,21.8-54.3,37.3-82.1,55.1c-15.5,9.9-31.3,19.2-46.7,28.4c0.8-6.7,2.5-13,7-18.6
		c16.2-16.6,25.5-35.1,42.8-42.4c19.1-8,41.3-29.2,55.6-44.2C607.9,679.2,585,694.7,564.1,701.8z M729.6,719.3
		c-9.7,41.8-38.5,68.4-74.5,86.8c-21.8,11.2-45.5,18.9-68.7,27.3c-24.4,8.8-49.1,16.7-80.1,27.2c46.1-50.2,120.1-41.5,160-94.5
		c-55.1,23.1-107.9,45.3-160.1,67.2c4.1-16.9,18.6-31.1,37.7-40.7c24.3-12.3,49.5-22.8,74-34.9c49.6-24.5,84.3-60.6,88.3-127
		C733.5,660.4,736.7,688.9,729.6,719.3z"/>
</g>
<g>
</g>
<g>
</g>
<g>
</g>
<g>
</g>
<g>
</g>
<g>
</g>
</svg>
